<?xml version="1.0" encoding="UTF-8"?>
<svg id="Layer_2" data-name="Layer 2" xmlns="http://www.w3.org/2000/svg" xmlns:xlink="http://www.w3.org/1999/xlink" viewBox="0 0 793.98 144.51">
  <defs>
    <style>
      .cls-1 {
        fill: url(#linear-gradient);
      }

      .cls-1, .cls-2, .cls-3, .cls-4 {
        stroke-width: 0px;
      }

      .cls-2 {
        fill: #fff;
      }

      .cls-3 {
        fill: url(#linear-gradient-2);
      }

      .cls-4 {
        fill: url(#linear-gradient-3);
      }
    </style>
    <linearGradient id="linear-gradient" x1=".01" y1="65.95" x2="101.51" y2="65.95" gradientUnits="userSpaceOnUse">
      <stop offset="0" stop-color="#008cff"/>
      <stop offset="1" stop-color="#00dcf4"/>
    </linearGradient>
    <linearGradient id="linear-gradient-2" x1="0" y1="26.99" x2="50.75" y2="26.99" xlink:href="#linear-gradient"/>
    <linearGradient id="linear-gradient-3" x1="50.75" y1="106.36" x2="101.5" y2="106.36" xlink:href="#linear-gradient"/>
  </defs>
  <g id="Layer_1-2" data-name="Layer 1">
    <g>
      <g>
        <path class="cls-1" d="m.01,83.45v27.66s50.74-29.31,50.74-29.31l47.29-27.31c2.15-1.24,3.47-3.53,3.47-6.01v-27.68s-50.76,29.33-50.76,29.33L3.48,77.44C1.33,78.68.01,80.97.01,83.45"/>
        <path class="cls-3" d="m0,22.31L36.37,1.3c6.39-3.69,14.38.92,14.38,8.3v15.06S0,53.98,0,53.98v-31.67Z"/>
        <path class="cls-4" d="m101.5,79.37v31.67s-36.37,21.01-36.37,21.01c-6.39,3.69-14.38-.92-14.38-8.3v-15.06s50.75-29.32,50.75-29.32Z"/>
      </g>
      <path class="cls-2" d="m210.51,42.48l-20.96,4.32c-1.54-9.71-10.02-16.03-20.35-16.03s-16.8,5.85-16.8,12.79c0,5.24,2.31,8.94,10.33,10.48l22.2,4.47c16.8,3.54,27.13,13.56,27.13,29.59,0,20.04-16.49,32.52-41,32.52-21.58,0-40.53-10.02-43.15-30.67l22.04-4.47c2.78,11.71,11.41,16.8,23.12,16.8s18.34-5.7,18.34-13.1c0-5.86-2.78-9.4-12.02-11.25l-21.89-4.16c-12.33-2.62-27.13-9.4-27.13-29.59,0-18.5,15.1-31.44,39.3-31.44,20.96,0,36.84,11.41,40.84,29.75"/>
      <path class="cls-2" d="m358.56,79.93c0,24.2-18.96,40.38-41.46,40.38s-41.92-16.18-41.92-40.38,18.96-40.38,41.92-40.38,41.46,16.18,41.46,40.38m-19.73,0c0-14.33-11.1-22.97-21.73-22.97s-22.19,8.63-22.19,22.97,11.1,22.96,22.19,22.96,21.73-8.63,21.73-22.96"/>
      <path class="cls-2" d="m425.61,87.02l18.8,4.78c-4.32,17.57-20.19,28.82-38.53,28.82-22.5,0-41.15-16.49-41.15-40.69s18.65-40.85,41.15-40.85c17.88,0,33.45,11.1,38.53,28.36l-19.57,5.55c-2.78-10.79-10.02-15.26-18.96-15.26-12.79,0-21.42,9.09-21.42,22.2s8.63,22.04,21.42,22.04c8.94,0,16.18-4.32,19.73-14.95"/>
      <polygon class="cls-2" points="510.84 118.31 480.63 88.25 477.09 88.25 477.09 118.31 456.74 118.31 456.74 7.33 477.09 7.33 477.09 68.22 480.79 68.22 508.38 41.4 533.96 41.4 496.82 78.23 537.97 118.31 510.84 118.31"/>
      <path class="cls-2" d="m629.21,79.93c0,24.2-18.19,40.69-37.76,40.69-10.48,0-18.96-3.08-25.43-8.32v32.21h-20.35V41.4h20.35v6.16c6.47-5.39,14.95-8.48,25.43-8.48,19.58,0,37.76,16.65,37.76,40.84m-19.73,0c0-14.18-9.25-23.12-21.58-23.12-10.94,0-21.88,8.94-21.88,23.12s10.94,22.96,21.88,22.96c12.33,0,21.58-8.78,21.58-22.96"/>
      <path class="cls-2" d="m665.12,18.43c0,6.78-5.24,11.87-12.33,11.87s-12.33-5.09-12.33-11.87,5.09-12.18,12.33-12.18,12.33,5.7,12.33,12.18m-22.5,22.96h20.34v76.91h-20.34V41.4Z"/>
      <rect class="cls-2" x="682.54" y="7.33" width="20.34" height="110.97"/>
      <path class="cls-2" d="m793.98,85.32h-58.57c2,11.1,9.86,17.88,19.26,17.88,6.01,0,13.56-.77,19.11-10.17l18.19,3.85c-6.78,16.03-20.5,23.73-37.3,23.73-21.73,0-39.46-16.49-39.46-40.69s17.72-40.84,39.76-40.84c20.5,0,38.22,15.88,38.99,39.3v6.93Zm-57.95-14.33h37.14c-2.62-9.86-10.02-14.18-18.19-14.18-7.71,0-16.49,4.62-18.96,14.18"/>
      <path class="cls-2" d="m269.17,97.96c-4.01,2.16-9.25,3.7-12.79,3.7-6.78,0-11.25-4.01-11.25-13.25v-22.39l-17.03-7.97h42.16v-16.65h-25.12v-23.27h-20.35v71.82c0,21.11,12.02,30.67,30.21,30.67,6.47,0,12.02-1.39,20.04-5.7l-5.86-16.95Z"/>
    </g>
  </g>
</svg>